<svg id="Layers" xmlns="http://www.w3.org/2000/svg" viewBox="0 0 764.63 130.32"><defs><style>.cls-1{fill:#46a546;}.cls-2{fill:#f89406;}.cls-3{fill:#c43c35;}.cls-4{fill:#999;}</style></defs><g id="Black_Text_Transparent" data-name="Black Text Transparent"><path class="cls-1" d="M15.17,5.15h104a12,12,0,0,1,12,12h0a12,12,0,0,1-12,12h-104a12,12,0,0,1-12-12h0A12,12,0,0,1,15.17,5.15Z"/><path class="cls-2" d="M15.17,37.15h88.64a12,12,0,0,1,12,12h0a12,12,0,0,1-12,12H15.17a12,12,0,0,1-12-12h0A12,12,0,0,1,15.17,37.15Z"/><path class="cls-3" d="M15.17,69.15h98.88a12,12,0,0,1,12,12h0a12,12,0,0,1-12,12H15.17a12,12,0,0,1-12-12h0A12,12,0,0,1,15.17,69.15Z"/><path class="cls-4" d="M15.17,101.15H68a12,12,0,0,1,12,12h0a12,12,0,0,1-12,12H15.17a12,12,0,0,1-12-12h0A12,12,0,0,1,15.17,101.15Z"/><path d="M155.17,125.14v-56h21.58q10.68,0,16.75,7.45t6.06,20.5q0,13.07-6.14,20.58t-16.66,7.45H155.17m7.14-6.3h13.21q8.29,0,12.6-5.53t4.31-16.13q0-10.68-4.3-16.21t-12.6-5.53H162.32v43.39"/><path d="M215.36,84.89v40.25H209V84.89h6.37m0-15.74v8.07h-6.45V69.16h6.45m43.6,0v56h-5.68v-5.3a16.56,16.56,0,0,1-5.69,5.38,14.3,14.3,0,0,1-7.15,1.69q-8.15,0-12.83-5.83T222.92,105q0-9.6,4.68-15.36a15.43,15.43,0,0,1,12.59-5.83q8.3,0,12.37,6.22V69.18h6.37M241.27,89.76a10.1,10.1,0,0,0-8.45,4.3q-3.23,4.31-3.22,11.29t3.22,11.37a10.2,10.2,0,0,0,8.53,4.23,9.59,9.59,0,0,0,8.14-4.23q3.07-4.23,3.07-11.21,0-7.23-3.08-11.45a9.61,9.61,0,0,0-8.22-4.3m27-4.84h5.91v6.76A18.3,18.3,0,0,1,280,85.61a14.78,14.78,0,0,1,7.6-1.84q5.83,0,9.29,3a10.06,10.06,0,0,1,3.46,8v30.42h-6.37V97.29a7.64,7.64,0,0,0-2.23-5.76,8.4,8.4,0,0,0-6.07-2.15,9.62,9.62,0,0,0-7.92,3.76q-3,3.69-3,9.83v22.2h-6.45V84.92m42.3-15.75h7.14v7.76q0,9.45-7.14,10.06V84.07c2.46-.41,3.68-2.72,3.68-6.92h-3.68v-8m31.54,15.75v5.22H335.5V117.7a4.53,4.53,0,0,0,.69,2.92,4.34,4.34,0,0,0,2.84.69,12.08,12.08,0,0,0,3.07-.31v5.38a30,30,0,0,1-5.22.54,8.66,8.66,0,0,1-5.76-1.69,5.66,5.66,0,0,1-2-4.68V90.13h-5.45V84.91h5.5V73.83h6.37V84.89h6.6M406.4,97.48a14.89,14.89,0,0,1,4.07,2.54,8.15,8.15,0,0,1,2.38,3.31,14.83,14.83,0,0,1,1,3.46,28.28,28.28,0,0,1,.23,3.84c0,.46,0,1.13-.08,2v1.92a17.52,17.52,0,0,0,.69,5.3,6.74,6.74,0,0,0,2.69,3.53v1.77H408.7a23,23,0,0,1-1.54-9.14v-5c0-3.43-.75-5.94-2.23-7.52s-3.82-2.46-7-2.46H379.5v24.12h-7.14v-56h25.81q8.22,0,12.6,3.92t4.45,11.06a14,14,0,0,1-2.08,7.91,16.56,16.56,0,0,1-6.76,5.46m1.39-12.36c0-3.68-1-6.22-2.92-7.6s-4.63-2.07-8.07-2.08H379.5V94.74h17.28q5.69,0,8.29-2.3c1.79-1.53,2.69-4,2.69-7.3m51.6,22h-29.6c.05,3.69.76,6.55,2.15,8.6a10.74,10.74,0,0,0,9.67,5.23q7.83,0,10.52-8.06h6.46a16.68,16.68,0,0,1-5.76,10.3A17.52,17.52,0,0,1,441.36,127q-8.44,0-13.36-5.68t-4.91-15.67q0-9.9,5-15.82a16.75,16.75,0,0,1,13.45-6,17.75,17.75,0,0,1,10,2.84,15.9,15.9,0,0,1,6.3,7.76q1.62,4.23,1.61,12.83M430,102h22.58a1.05,1.05,0,0,0,.08-.46,11.65,11.65,0,0,0-3.23-8.37,11,11,0,0,0-15.9-.07A13.82,13.82,0,0,0,430,102M467,96.86q.46-13,16.13-13.06,7.45,0,11.29,2.85t3.84,8.14v23.65q0,3.15,3.46,3.15a6.64,6.64,0,0,0,1.39-.15v4.84a18.42,18.42,0,0,1-4.38.69,6.72,6.72,0,0,1-4.68-1.46,7,7,0,0,1-1.92-4.45Q485.72,127,478.5,127q-6.08,0-9.68-3.23a11.17,11.17,0,0,1-3.54-8.68,16.13,16.13,0,0,1,.3-3.23c.25-1,.51-1.82.77-2.53a5.27,5.27,0,0,1,1.53-2.07c.71-.66,1.3-1.2,1.76-1.61a7.87,7.87,0,0,1,2.46-1.15c1.18-.41,2.08-.69,2.69-.84a22.78,22.78,0,0,1,3.23-.69c1.54-.26,2.67-.44,3.38-.54l3.84-.54a12.8,12.8,0,0,0,5.23-1.46,3.41,3.41,0,0,0,1.46-3V95.71a5,5,0,0,0-2.38-4.45,11.82,11.82,0,0,0-6.6-1.54q-4.45,0-6.76,1.76a7.22,7.22,0,0,0-2.69,5.38h-6.45m12.83,24.5a13.3,13.3,0,0,0,8.68-2.76q3.38-2.84,3.37-6.07v-7.22a21.9,21.9,0,0,1-5.84,1.54l-6.68,1.08a11.37,11.37,0,0,0-5.15,2.23,5.58,5.58,0,0,0-2.3,4.76,5.81,5.81,0,0,0,2.08,4.77,9,9,0,0,0,5.83,1.69m62.21-52.15v56H536.4v-5.3a16.45,16.45,0,0,1-5.68,5.38,14.28,14.28,0,0,1-7.14,1.69q-8.15,0-12.83-5.83T506.07,105q0-9.6,4.69-15.37a15.45,15.45,0,0,1,12.6-5.84q8.29,0,12.36,6.22V69.23h6.38M524.41,89.8A10.08,10.08,0,0,0,516,94.1q-3.23,4.31-3.23,11.29T516,116.76a10.2,10.2,0,0,0,8.52,4.23,9.57,9.57,0,0,0,8.14-4.23q3.07-4.23,3.08-11.21,0-7.23-3.08-11.45a9.6,9.6,0,0,0-8.22-4.3"/><path d="M183.66,14.75V61.14H172.14V14.75h-17V5.15H200v9.6H183.66M220,19a22.06,22.06,0,0,1,5.22.62,17.73,17.73,0,0,1,5.15,2.23A16.07,16.07,0,0,1,235,26a19,19,0,0,1,3.22,6.61,32.44,32.44,0,0,1,1.23,9.37c0,.61,0,1.23-.08,1.84h-27.8a30.88,30.88,0,0,0,.38,4.15,14.39,14.39,0,0,0,1.23,3.38,6.49,6.49,0,0,0,2.61,2.53,10,10,0,0,0,4.38.85q6.13,0,8.22-5.22h10.59a17.64,17.64,0,0,1-7,9.83,21,21,0,0,1-12.22,3.61q-8.83,0-13.9-5.69t-5.07-15.74q0-10.45,5.15-16.44T220,19m8.22,17.67a11.87,11.87,0,0,0-2.54-7,7.23,7.23,0,0,0-5.84-2.46q-7.06,0-8.14,9.45h16.51m18-17H257v8.14a14.66,14.66,0,0,1,4.76-6.53A11,11,0,0,1,268.47,19a10.68,10.68,0,0,1,1.3.08V30a22.15,22.15,0,0,0-3.38-.3q-9.43,0-9.44,9.45v22H246.2V19.68m29.17,0h10.68v5.15a18,18,0,0,1,5.22-4.45A13,13,0,0,1,297.41,19q8.14,0,11.29,6.15A14.46,14.46,0,0,1,320.83,19q6.23,0,9.68,3.38T334,31.84V61.18H323.29V33.53a5,5,0,0,0-1.61-3.92,5.84,5.84,0,0,0-4.22-1.46A7.11,7.11,0,0,0,312,30.3a8.67,8.67,0,0,0-1.92,6V61.17H299.37V33.52a5,5,0,0,0-1.61-3.92,5.92,5.92,0,0,0-4.23-1.46,7.11,7.11,0,0,0-5.46,2.15,8.67,8.67,0,0,0-1.92,6V61.16H275.4V19.69M350.6,49.1a6.92,6.92,0,0,0,2.15,4q1.69,1.38,6.3,1.38a12.85,12.85,0,0,0,5.84-1.08,3.3,3.3,0,0,0,2.15-3,2.58,2.58,0,0,0-.84-2A6.85,6.85,0,0,0,363.44,47l-12.82-4c-.05,0-.36-.08-.92-.23l-1.23-.46a10.12,10.12,0,0,0-1.23-.46,7.73,7.73,0,0,1-1.46-.77,15,15,0,0,0-1.23-.92,6,6,0,0,1-1.23-1.31l-.84-1.53a8.48,8.48,0,0,1-.7-2.08,12.85,12.85,0,0,1-.23-2.46,12.3,12.3,0,0,1,4.53-10.07q4.6-3.77,12.52-3.76,8.37,0,13.14,3.76A12.66,12.66,0,0,1,376.66,33H366.3q-.07-5.61-7.76-5.61A8.44,8.44,0,0,0,354,28.46a3.07,3.07,0,0,0-1.69,2.76,2.46,2.46,0,0,0,.77,1.92,10.1,10.1,0,0,0,3,1.3l13.6,3.92q8.15,2.37,8.14,10.44a13.56,13.56,0,0,1-.84,4.68,15,15,0,0,1-2.76,4.46,12.36,12.36,0,0,1-5.61,3.53,25.9,25.9,0,0,1-8.91,1.38q-19.12,0-19.58-13.83h10.52m74.42-30.09q9.76,0,15.13,5.91t5.46,16.36q0,10-5.53,15.82t-15,5.84q-9.6,0-15-5.84t-5.45-16.13q0-10.22,5.45-16t15-5.91m.08,8.68a8.33,8.33,0,0,0-7.06,3.69,15.93,15.93,0,0,0-2.69,9.6,15.93,15.93,0,0,0,2.69,9.6,8.6,8.6,0,0,0,14.06.08,15.44,15.44,0,0,0,2.77-9.53q0-6.15-2.69-9.76a8.21,8.21,0,0,0-7.06-3.69m46.3-7.14V27.6H465.1V61.09H454.35V27.63h-5.84V20.48h5.83v-5q0-10.36,10.6-10.37,3.15,0,6.15.23v8.07a18.1,18.1,0,0,0-3.07-.23q-2.92,0-2.92,3.22v4.07h6.37M541,22.17H530.24q-.62-8.76-11.75-8.75a11.66,11.66,0,0,0-7.06,1.92,5.8,5.8,0,0,0-2.61,5,5.22,5.22,0,0,0,2.23,4.61q2.22,1.45,8.37,2.68l8.75,1.69q7.76,1.53,11.29,5.22T543,44.75q0,8.52-6.07,13.36T520,62.87q-10.75,0-16.74-4.76t-6.45-13.75h11.22a8.88,8.88,0,0,0,3.54,6.91q3.23,2.38,9.06,2.38c3.49,0,6.23-.66,8.22-2a6.25,6.25,0,0,0,3.07-5.53,6.21,6.21,0,0,0-2.38-5.22q-2.38-1.84-8.14-2.92l-7.83-1.53q-8.52-1.62-12.13-5.07t-3.61-10q0-8.22,5.53-12.68t15.67-4.53a40.53,40.53,0,0,1,5.61.38,25.23,25.23,0,0,1,5.84,1.62,17.32,17.32,0,0,1,5.3,3.07,13.58,13.58,0,0,1,3.69,5.22A18.09,18.09,0,0,1,541,22.15m25.57-3.22a22.06,22.06,0,0,1,5.22.61A17.73,17.73,0,0,1,577,21.77a16.14,16.14,0,0,1,4.61,4.15,19,19,0,0,1,3.23,6.6A32.39,32.39,0,0,1,586,41.89c0,.61,0,1.23-.08,1.84h-27.8a30.71,30.71,0,0,0,.38,4.14,14.55,14.55,0,0,0,1.23,3.38,6.49,6.49,0,0,0,2.61,2.53,10.18,10.18,0,0,0,4.38.84q6.13,0,8.22-5.23h10.6a17.64,17.64,0,0,1-7,9.83,20.91,20.91,0,0,1-12.21,3.61q-8.83,0-13.9-5.69t-5.07-15.75q0-10.44,5.15-16.44t14.06-6.07m8.21,17.66a11.87,11.87,0,0,0-2.54-7,7.22,7.22,0,0,0-5.84-2.46q-7.07,0-8.14,9.44h16.51m18-17H603.6V27.7a14.68,14.68,0,0,1,4.76-6.52,11.06,11.06,0,0,1,6.76-2.31,9,9,0,0,1,1.3.08v11a22.26,22.26,0,0,0-3.38-.3q-9.45,0-9.45,9.44v22h-10.8V19.63m51.9,41.48H633.4L618.88,19.63h11.37l9,30.34,8.38-30.34H659l-14.3,41.49M674.5,19.64V61.11H663.74V19.64H674.5m0-14.51v9.6H663.74V5.13H674.5m26,22.51q-8.76,0-8.75,13.59c0,4.05.77,7.22,2.31,9.53a7.46,7.46,0,0,0,6.45,3.45,6.8,6.8,0,0,0,4.91-1.69,12.22,12.22,0,0,0,2.76-5.76H718.5a17.58,17.58,0,0,1-5.69,11.83q-4.84,4.3-12.37,4.3-9.23,0-14.36-5.68t-5.07-16q0-10.6,5.14-16.44T700.59,19q7.75,0,12.52,4.3t5.37,11.9H708.17c-.62-2.72-1.51-4.64-2.69-5.76a6.59,6.59,0,0,0-5-1.77M742,18.94a22.08,22.08,0,0,1,5.23.61,17.73,17.73,0,0,1,5.15,2.23A16.11,16.11,0,0,1,757,25.92a18.82,18.82,0,0,1,3.23,6.6,32.44,32.44,0,0,1,1.23,9.37c0,.62,0,1.23-.08,1.84h-27.8a29.19,29.19,0,0,0,.39,4.15,15.16,15.16,0,0,0,1.23,3.38,6.61,6.61,0,0,0,2.62,2.54,10.18,10.18,0,0,0,4.38.84q6.15,0,8.22-5.23H761a17.65,17.65,0,0,1-7,9.83,20.91,20.91,0,0,1-12.21,3.61q-8.84,0-13.9-5.68t-5.07-15.75Q722.85,31,728,25t14.06-6.07m8.22,17.66a11.87,11.87,0,0,0-2.54-7,7.22,7.22,0,0,0-5.84-2.46q-7.06,0-8.14,9.44h16.51"/></g></svg>