<svg id="Layers" xmlns="http://www.w3.org/2000/svg" viewBox="0 0 139.37 141.17"><defs><style>.cls-1{fill:#46a546;}.cls-2{fill:#f89406;}.cls-3{fill:#c43c35;}.cls-4{fill:#999;}</style></defs><g id="Logo_Transparent" data-name="Logo Transparent"><rect class="cls-1" x="6.45" y="8.49" width="128" height="24" rx="12"/><path class="cls-2" d="M18.45,40.49h88.64a12,12,0,0,1,12,12h0a12,12,0,0,1-12,12H18.45a12,12,0,0,1-12-12h0A12,12,0,0,1,18.45,40.49Z"/><path class="cls-3" d="M18.45,72.49h98.88a12,12,0,0,1,12,12h0a12,12,0,0,1-12,12H18.45a12,12,0,0,1-12-12h0A12,12,0,0,1,18.45,72.49Z"/><path class="cls-4" d="M18.45,104.49h52.8a12,12,0,0,1,12,12h0a12,12,0,0,1-12,12H18.45a12,12,0,0,1-12-12h0A12,12,0,0,1,18.45,104.49Z"/></g></svg>